<svg width="512" height="512" viewBox="0 0 512 512" fill="none" xmlns="http://www.w3.org/2000/svg">
<path d="M366.933 221.867C362.22 221.867 358.4 225.687 358.4 230.4V307.2C358.4 363.754 312.554 409.6 256 409.6C199.446 409.6 153.6 363.754 153.6 307.2V230.4C153.6 225.687 149.78 221.867 145.067 221.867C140.354 221.867 136.534 225.687 136.534 230.4V307.2C136.534 373.18 190.021 426.667 256.001 426.667C321.981 426.667 375.467 373.18 375.467 307.2V230.4C375.467 225.687 371.646 221.867 366.933 221.867Z" fill="white"/>
<path d="M332.8 238.933H179.2C174.487 238.933 170.667 242.753 170.667 247.466V307.2C170.667 354.328 208.872 392.533 256 392.533C303.128 392.533 341.333 354.328 341.333 307.2V247.467C341.333 242.754 337.513 238.933 332.8 238.933ZM324.267 307.2C324.267 344.903 293.703 375.467 256 375.467C218.297 375.467 187.733 344.903 187.733 307.2V256H324.266V307.2H324.267Z" fill="white"/>
<path d="M298.667 298.667C293.954 298.667 290.134 302.487 290.134 307.2C290.134 326.051 274.852 341.333 256.001 341.333C251.288 341.333 247.468 345.153 247.468 349.866C247.468 354.579 251.288 358.399 256.001 358.399C284.278 358.399 307.201 335.476 307.201 307.199C307.2 302.487 303.38 298.667 298.667 298.667Z" fill="white"/>
<path d="M256 0C208.872 0 170.667 38.205 170.667 85.333V247.466C170.667 252.179 174.487 255.999 179.2 255.999H332.8C337.513 255.999 341.333 252.179 341.333 247.466V85.333C341.333 38.205 303.128 0 256 0ZM324.267 238.933H187.733V85.333C187.733 47.63 218.297 17.066 256 17.066C293.703 17.066 324.267 47.63 324.267 85.333V238.933Z" fill="white"/>
<path d="M256 409.6C251.287 409.6 247.467 413.42 247.467 418.133V477.866C247.467 482.579 251.287 486.399 256 486.399C260.713 486.399 264.533 482.579 264.533 477.866V418.133C264.533 413.421 260.713 409.6 256 409.6Z" fill="white"/>
<path d="M315.733 469.333H196.267C177.416 469.333 162.134 484.615 162.134 503.466C162.134 508.179 165.954 511.999 170.667 511.999H341.334C346.047 511.999 349.867 508.179 349.867 503.466C349.867 484.615 334.585 469.333 315.733 469.333ZM181.504 494.933C184.55 489.658 190.176 486.406 196.267 486.4H315.734C321.825 486.406 327.451 489.658 330.497 494.933H181.504Z" fill="white"/>
<path d="M384 238.933H128C123.287 238.933 119.467 242.753 119.467 247.466C119.467 252.179 123.287 256 128 256H384C388.713 256 392.533 252.18 392.533 247.467C392.533 242.754 388.713 238.933 384 238.933Z" fill="white"/>
<path d="M227.925 70.741C225.471 68.32 221.801 67.613 218.624 68.949C217.577 69.355 216.62 69.964 215.808 70.741C214.18 72.355 213.271 74.557 213.284 76.849C213.311 81.562 217.154 85.36 221.867 85.333L223.488 85.162C224.053 85.08 224.6 84.907 225.109 84.65C225.633 84.48 226.124 84.22 226.56 83.882L227.925 82.858C227.942 82.842 227.958 82.825 227.974 82.809C231.294 79.463 231.271 74.06 227.925 70.741Z" fill="white"/>
<path d="M256 85.333C260.713 85.333 264.533 81.5126 264.533 76.8C264.533 72.0874 260.713 68.267 256 68.267C251.287 68.267 247.467 72.0874 247.467 76.8C247.467 81.5126 251.287 85.333 256 85.333Z" fill="white"/>
<path d="M263.851 39.424C263.419 38.39 262.813 37.437 262.059 36.608L260.694 35.584C260.258 35.246 259.768 34.986 259.243 34.816C258.734 34.558 258.187 34.385 257.622 34.304C254.838 33.747 251.959 34.61 249.942 36.608C249.188 37.437 248.582 38.39 248.15 39.424C247.237 41.489 247.237 43.844 248.15 45.909C248.582 46.943 249.188 47.896 249.942 48.725C251.577 50.284 253.741 51.168 256.001 51.2L257.622 51.029C258.187 50.947 258.734 50.774 259.243 50.517C259.767 50.347 260.258 50.087 260.694 49.749L262.059 48.725C262.813 47.896 263.419 46.943 263.851 45.909C264.764 43.844 264.764 41.489 263.851 39.424Z" fill="white"/>
<path d="M296.107 70.741C294.5 69.147 292.326 68.257 290.062 68.267C285.349 68.287 281.545 72.123 281.565 76.836C281.585 81.549 285.421 85.353 290.134 85.333C292.373 85.324 294.518 84.435 296.107 82.858C296.124 82.842 296.14 82.825 296.156 82.809C299.475 79.463 299.453 74.06 296.107 70.741Z" fill="white"/>
<path d="M227.925 104.875C225.471 102.454 221.801 101.747 218.624 103.083C217.577 103.489 216.62 104.098 215.808 104.875C214.211 106.485 213.32 108.665 213.333 110.934C213.346 112.049 213.578 113.151 214.016 114.177C214.448 115.211 215.054 116.164 215.808 116.993C217.443 118.552 219.607 119.436 221.867 119.468L223.488 119.297C224.053 119.215 224.6 119.042 225.109 118.785C225.633 118.615 226.124 118.355 226.56 118.017L227.925 116.993C228.679 116.164 229.285 115.211 229.717 114.177C230.154 113.151 230.386 112.049 230.4 110.934C230.369 108.674 229.485 106.51 227.925 104.875Z" fill="white"/>
<path d="M262.059 104.875C258.713 101.529 253.288 101.529 249.942 104.875C249.165 105.687 248.556 106.643 248.15 107.691C247.713 108.717 247.481 109.819 247.467 110.934C247.467 115.647 251.287 119.467 256 119.467L257.621 119.296C258.186 119.214 258.733 119.041 259.242 118.784C259.766 118.614 260.257 118.354 260.693 118.016C261.181 117.721 261.639 117.378 262.058 116.992C265.405 113.646 265.405 108.221 262.059 104.875Z" fill="white"/>
<path d="M296.107 104.875L294.827 103.851C294.391 103.513 293.901 103.253 293.376 103.083C292.867 102.825 292.319 102.652 291.755 102.571C288.971 102.014 286.092 102.877 284.075 104.875C283.321 105.704 282.715 106.657 282.283 107.691C281.37 109.756 281.37 112.111 282.283 114.176C282.689 115.223 283.298 116.18 284.075 116.992C285.71 118.551 287.874 119.435 290.134 119.467L291.755 119.296C292.32 119.214 292.867 119.041 293.376 118.784C293.9 118.614 294.391 118.354 294.827 118.016C295.305 117.744 295.737 117.399 296.107 116.992C296.93 116.201 297.571 115.24 297.984 114.176C299.299 110.981 298.557 107.309 296.107 104.875Z" fill="white"/>
<path d="M227.925 139.008C225.471 136.587 221.801 135.88 218.624 137.216C216.596 138.08 214.981 139.695 214.118 141.722C212.271 146.058 214.288 151.07 218.624 152.917C219.65 153.354 220.752 153.586 221.867 153.6C224.16 153.613 226.361 152.704 227.975 151.076C231.294 147.73 231.272 142.327 227.925 139.008Z" fill="white"/>
<path d="M263.851 141.824C263.419 140.79 262.813 139.837 262.059 139.008L260.694 137.984C260.258 137.646 259.768 137.386 259.243 137.216C258.734 136.958 258.187 136.785 257.622 136.704C254.838 136.147 251.959 137.01 249.942 139.008C249.188 139.837 248.582 140.79 248.15 141.824C247.237 143.889 247.237 146.244 248.15 148.309C248.582 149.343 249.188 150.296 249.942 151.125C251.577 152.684 253.741 153.568 256.001 153.6L257.622 153.429C258.187 153.347 258.734 153.174 259.243 152.917C259.767 152.747 260.258 152.487 260.694 152.149L262.059 151.125C262.813 150.296 263.419 149.343 263.851 148.309C264.764 146.244 264.764 143.889 263.851 141.824Z" fill="white"/>
<path d="M296.107 139.008C294.5 137.414 292.326 136.524 290.062 136.534C285.349 136.554 281.545 140.39 281.565 145.103C281.585 149.816 285.421 153.62 290.134 153.6C292.373 153.591 294.518 152.702 296.107 151.125C296.124 151.109 296.14 151.092 296.156 151.076C299.475 147.73 299.453 142.327 296.107 139.008Z" fill="white"/>
<path d="M227.925 173.141L226.56 172.117C226.124 171.779 225.634 171.519 225.109 171.349C224.6 171.091 224.052 170.918 223.488 170.837C220.704 170.28 217.825 171.143 215.808 173.141C214.211 174.751 213.32 176.931 213.333 179.2C213.35 182.645 215.437 185.742 218.624 187.051C219.65 187.488 220.752 187.72 221.867 187.734C224.16 187.747 226.361 186.838 227.975 185.21C231.294 181.863 231.272 176.46 227.925 173.141Z" fill="white"/>
<path d="M256 187.733C260.713 187.733 264.533 183.913 264.533 179.2C264.533 174.487 260.713 170.667 256 170.667C251.287 170.667 247.467 174.487 247.467 179.2C247.467 183.913 251.287 187.733 256 187.733Z" fill="white"/>
<path d="M296.107 173.141L294.827 172.117C294.391 171.779 293.901 171.519 293.376 171.349C292.867 171.091 292.319 170.918 291.755 170.837C288.971 170.28 286.092 171.143 284.075 173.141C283.321 173.97 282.715 174.923 282.283 175.957C281.802 176.969 281.568 178.08 281.6 179.2C281.6 183.913 285.42 187.733 290.133 187.733L291.754 187.562C292.319 187.48 292.866 187.307 293.375 187.05C293.899 186.88 294.39 186.62 294.826 186.282C295.304 186.01 295.736 185.665 296.106 185.258C297.735 183.662 298.657 181.48 298.666 179.199C298.657 176.919 297.735 174.738 296.107 173.141Z" fill="white"/>
<path d="M227.925 207.275C227.505 206.889 227.048 206.546 226.56 206.251C226.124 205.913 225.634 205.653 225.109 205.483C224.6 205.225 224.052 205.052 223.488 204.971C220.704 204.414 217.825 205.277 215.808 207.275C214.18 208.889 213.271 211.091 213.284 213.383C213.311 218.096 217.154 221.894 221.867 221.867C224.16 221.88 226.361 220.971 227.975 219.343C231.294 215.996 231.272 210.593 227.925 207.275Z" fill="white"/>
<path d="M262.059 207.275C258.713 203.929 253.288 203.929 249.942 207.275C249.165 208.087 248.556 209.044 248.15 210.091C247.713 211.117 247.481 212.219 247.467 213.334C247.467 218.047 251.287 221.867 256 221.867L257.621 221.696C258.186 221.614 258.733 221.441 259.242 221.184C259.766 221.014 260.257 220.754 260.693 220.416C261.181 220.121 261.639 219.778 262.058 219.392C265.405 216.046 265.405 210.621 262.059 207.275Z" fill="white"/>
<path d="M296.107 207.275C292.779 203.966 287.403 203.966 284.075 207.275C282.478 208.885 281.587 211.066 281.6 213.334C281.6 218.047 285.42 221.867 290.133 221.867C292.372 221.858 294.517 220.969 296.106 219.392C297.735 217.796 298.657 215.614 298.666 213.333C298.657 211.053 297.735 208.871 296.107 207.275Z" fill="white"/>
</svg>
